<?xml version="1.0" standalone="no"?>
<!DOCTYPE svg PUBLIC "-//W3C//DTD SVG 20010904//EN"
 "http://www.w3.org/TR/2001/REC-SVG-20010904/DTD/svg10.dtd">
<svg version="1.0" xmlns="http://www.w3.org/2000/svg"
 width="2567.000000pt" height="2824.000000pt" viewBox="0 0 2567.000000 2824.000000"
 preserveAspectRatio="xMidYMid meet">

<g transform="translate(0.000000,2824.000000) scale(0.100000,-0.100000)"
fill="#000000" stroke="none">
<path d="M22376 23469 c-356 -25 -696 -95 -1006 -206 -273 -97 -657 -310 -874
-483 -565 -451 -942 -1065 -1136 -1851 -79 -322 -117 -623 -127 -1004 -21
-853 140 -1570 497 -2224 l51 -94 -98 7 c-283 20 -1026 102 -1558 172 -1361
179 -2847 426 -5317 883 -1831 340 -2597 472 -3488 600 -2229 322 -3399 329
-4590 31 -1465 -367 -2691 -1192 -3531 -2372 -196 -277 -338 -517 -499 -843
-403 -816 -629 -1694 -690 -2675 -43 -698 70 -1370 347 -2070 74 -186 267
-575 375 -755 678 -1131 1727 -2030 2919 -2502 771 -306 1537 -421 2299 -347
669 66 1328 319 1855 714 910 681 1331 1674 1108 2615 -69 292 -216 611 -406
880 -151 212 -432 510 -637 674 -302 242 -672 434 -1040 539 -874 250 -1883
128 -2845 -344 -700 -343 -1313 -852 -1740 -1443 -104 -145 -81 -152 -203 68
-326 588 -493 1243 -468 1826 73 1647 803 3025 2041 3850 208 139 320 203 540
312 448 221 964 378 1500 457 873 130 2026 49 4055 -285 873 -143 1793 -309
1845 -333 98 -44 166 -126 184 -219 5 -28 3 -252 -5 -555 -24 -907 -102 -3952
-194 -7597 -156 -6193 -180 -7077 -191 -7200 -19 -217 -47 -335 -160 -687 -48
-148 -83 -238 -111 -283 -119 -199 -149 -305 -108 -386 34 -67 125 -149 216
-196 213 -109 385 -132 1039 -135 451 -3 517 2 680 53 203 62 375 212 375 326
0 48 -29 128 -92 252 -71 140 -74 149 -147 434 -70 272 -89 376 -100 541 -6
86 28 1570 120 5216 71 2802 151 5997 179 7100 65 2607 68 2698 80 2742 6 21
37 73 69 116 70 94 104 112 231 119 75 4 123 -2 400 -56 1287 -248 2850 -495
4150 -655 826 -102 1467 -162 2100 -197 287 -16 1412 -17 1690 -1 1363 77
2154 287 3470 920 109 52 155 80 182 110 72 79 76 195 11 273 -14 17 -72 65
-127 107 -148 112 -462 366 -695 562 -113 95 -220 179 -239 187 -72 30 -112
21 -433 -95 -852 -308 -1308 -417 -1971 -473 l-138 -11 -57 32 c-234 132 -401
289 -558 525 -214 320 -352 771 -394 1288 -27 319 -9 804 40 1097 108 649 374
1116 794 1390 286 187 636 272 1060 257 419 -15 665 -100 1155 -401 147 -90
221 -116 329 -116 189 0 236 41 571 502 l239 327 -97 92 c-370 350 -831 620
-1307 764 -389 117 -933 169 -1419 134z m-16199 -11604 c650 -86 1035 -358
1160 -822 25 -91 27 -113 27 -313 1 -186 -2 -230 -22 -328 -64 -318 -191 -561
-402 -772 -373 -373 -935 -542 -1576 -475 -698 74 -1385 351 -2017 813 l-87
64 21 35 c12 19 57 105 100 191 92 185 159 296 277 452 105 139 358 397 502
510 464 367 1013 598 1550 653 99 10 361 5 467 -8z"/>
</g>
</svg>
